<?xml version="1.0" standalone="no"?>
<!DOCTYPE svg PUBLIC "-//W3C//DTD SVG 20010904//EN"
 "http://www.w3.org/TR/2001/REC-SVG-20010904/DTD/svg10.dtd">
<svg version="1.0" xmlns="http://www.w3.org/2000/svg"
 width="120.000000pt" height="120.000000pt" viewBox="0 0 120.000000 120.000000"
 preserveAspectRatio="xMidYMid meet">
<metadata>
Created by potrace 1.11, written by Peter Selinger 2001-2013
</metadata>
<g transform="translate(0.000000,120.000000) scale(0.100000,-0.100000)"
fill="#000000" stroke="none">
<path d="M965 1085 c-75 -18 -104 -37 -169 -109 l-58 -66 -74 3 c-41 1 -74 3
-74 5 0 1 5 11 12 21 9 15 9 23 -1 35 -19 22 -24 21 -74 -22 -31 -28 -52 -38
-75 -37 -31 1 -35 6 -25 33 6 13 -14 42 -28 42 -5 0 -28 -17 -52 -38 -37 -34
-49 -39 -97 -41 -111 -4 -145 -11 -162 -32 -38 -45 -25 -57 107 -93 55 -15
114 -33 130 -41 118 -52 165 -75 165 -82 0 -8 -54 -68 -176 -194 l-64 -66 -87
0 c-105 1 -123 -4 -123 -36 0 -19 18 -36 85 -81 71 -48 85 -61 79 -78 -5 -16
-2 -19 13 -14 15 5 29 -10 72 -74 41 -61 59 -80 77 -80 12 0 26 5 30 11 3 6 7
54 7 105 l0 94 76 74 c74 71 109 105 164 155 l27 24 39 -84 c40 -85 82 -208
100 -288 14 -63 44 -78 81 -41 13 13 20 34 21 62 2 141 9 170 44 210 19 21 35
42 35 47 0 16 -29 33 -48 27 -16 -6 -19 -1 -19 33 0 32 7 46 34 72 18 18 33
41 33 51 0 24 -28 34 -51 19 -18 -10 -19 -7 -20 39 -1 27 -2 59 -2 70 -1 12
24 43 65 82 74 69 102 122 112 205 5 45 3 56 -14 73 -22 22 -42 23 -115 5z"/>
</g>
</svg>
